<svg width="17" height="17" viewBox="0 0 17 17" fill="none" xmlns="http://www.w3.org/2000/svg">
<path d="M0.268945 15.3177C-0.107889 15.7214 -0.086069 16.3542 0.317682 16.7311C0.721432 17.1079 1.35422 17.0861 1.73106 16.6823L0.268945 15.3177ZM15.9994 0.965538C15.9804 0.413581 15.5175 -0.0184386 14.9655 0.000594119L5.97088 0.310755C5.41893 0.329788 4.98691 0.792667 5.00594 1.34462C5.02497 1.89658 5.48785 2.3286 6.03981 2.30957L14.0351 2.03387L14.3108 10.0291C14.3298 10.5811 14.7927 11.0131 15.3446 10.9941C15.8966 10.975 16.3286 10.5121 16.3096 9.96019L15.9994 0.965538ZM1.73106 16.6823L15.7311 1.68232L14.2689 0.317682L0.268945 15.3177L1.73106 16.6823Z" fill="#182916"/>
</svg>
